<mxfile host="app.diagrams.net" agent="Mozilla/5.0 (Windows NT 10.0; Win64; x64; rv:129.0) Gecko/20100101 Firefox/129.0" version="24.7.7">
  <diagram name="Page-1" id="Ju6T7IHYaEuUDKG2r2Sl">
    <mxGraphModel dx="1050" dy="593" grid="1" gridSize="10" guides="1" tooltips="1" connect="1" arrows="1" fold="1" page="1" pageScale="1" pageWidth="850" pageHeight="1100" math="0" shadow="0">
      <root>
        <mxCell id="0" />
        <mxCell id="1" parent="0" />
        <mxCell id="yMrenib0WPdnj-31CfID-1" value="" style="ellipse;whiteSpace=wrap;html=1;" vertex="1" parent="1">
          <mxGeometry x="360" y="50" width="120" height="80" as="geometry" />
        </mxCell>
        <mxCell id="yMrenib0WPdnj-31CfID-2" value="" style="rounded=0;whiteSpace=wrap;html=1;" vertex="1" parent="1">
          <mxGeometry x="365" y="180" width="120" height="60" as="geometry" />
        </mxCell>
        <mxCell id="yMrenib0WPdnj-31CfID-3" value="" style="shape=parallelogram;perimeter=parallelogramPerimeter;whiteSpace=wrap;html=1;fixedSize=1;" vertex="1" parent="1">
          <mxGeometry x="360" y="260" width="120" height="60" as="geometry" />
        </mxCell>
        <mxCell id="yMrenib0WPdnj-31CfID-16" style="edgeStyle=orthogonalEdgeStyle;rounded=0;orthogonalLoop=1;jettySize=auto;html=1;exitX=0.5;exitY=1;exitDx=0;exitDy=0;entryX=0.5;entryY=0;entryDx=0;entryDy=0;" edge="1" parent="1" source="yMrenib0WPdnj-31CfID-4" target="yMrenib0WPdnj-31CfID-9">
          <mxGeometry relative="1" as="geometry" />
        </mxCell>
        <mxCell id="yMrenib0WPdnj-31CfID-4" value="" style="shape=parallelogram;perimeter=parallelogramPerimeter;whiteSpace=wrap;html=1;fixedSize=1;" vertex="1" parent="1">
          <mxGeometry x="350" y="350" width="120" height="60" as="geometry" />
        </mxCell>
        <mxCell id="yMrenib0WPdnj-31CfID-5" value="Start" style="text;html=1;align=center;verticalAlign=middle;whiteSpace=wrap;rounded=0;" vertex="1" parent="1">
          <mxGeometry x="395" y="75" width="60" height="30" as="geometry" />
        </mxCell>
        <mxCell id="yMrenib0WPdnj-31CfID-14" value="" style="edgeStyle=orthogonalEdgeStyle;rounded=0;orthogonalLoop=1;jettySize=auto;html=1;" edge="1" parent="1" source="yMrenib0WPdnj-31CfID-6" target="yMrenib0WPdnj-31CfID-7">
          <mxGeometry relative="1" as="geometry" />
        </mxCell>
        <mxCell id="yMrenib0WPdnj-31CfID-6" value="drate = 0.12" style="text;html=1;align=center;verticalAlign=middle;whiteSpace=wrap;rounded=0;" vertex="1" parent="1">
          <mxGeometry x="390" y="195" width="60" height="30" as="geometry" />
        </mxCell>
        <mxCell id="yMrenib0WPdnj-31CfID-15" value="" style="edgeStyle=orthogonalEdgeStyle;rounded=0;orthogonalLoop=1;jettySize=auto;html=1;" edge="1" parent="1" source="yMrenib0WPdnj-31CfID-7" target="yMrenib0WPdnj-31CfID-8">
          <mxGeometry relative="1" as="geometry" />
        </mxCell>
        <mxCell id="yMrenib0WPdnj-31CfID-7" value="Enter price1" style="text;html=1;align=center;verticalAlign=middle;whiteSpace=wrap;rounded=0;" vertex="1" parent="1">
          <mxGeometry x="390" y="270" width="60" height="30" as="geometry" />
        </mxCell>
        <mxCell id="yMrenib0WPdnj-31CfID-8" value="Input price1" style="text;html=1;align=center;verticalAlign=middle;whiteSpace=wrap;rounded=0;" vertex="1" parent="1">
          <mxGeometry x="380" y="365" width="60" height="30" as="geometry" />
        </mxCell>
        <mxCell id="yMrenib0WPdnj-31CfID-9" value="" style="shape=parallelogram;perimeter=parallelogramPerimeter;whiteSpace=wrap;html=1;fixedSize=1;" vertex="1" parent="1">
          <mxGeometry x="340" y="435" width="120" height="60" as="geometry" />
        </mxCell>
        <mxCell id="yMrenib0WPdnj-31CfID-11" value="&lt;div&gt;Enter price2&lt;/div&gt;&lt;div&gt;&lt;br&gt;&lt;/div&gt;" style="text;html=1;align=center;verticalAlign=middle;whiteSpace=wrap;rounded=0;" vertex="1" parent="1">
          <mxGeometry x="370" y="465" width="60" height="30" as="geometry" />
        </mxCell>
        <mxCell id="yMrenib0WPdnj-31CfID-20" style="edgeStyle=orthogonalEdgeStyle;rounded=0;orthogonalLoop=1;jettySize=auto;html=1;exitX=0.5;exitY=1;exitDx=0;exitDy=0;entryX=0.5;entryY=0;entryDx=0;entryDy=0;" edge="1" parent="1" source="yMrenib0WPdnj-31CfID-12" target="yMrenib0WPdnj-31CfID-19">
          <mxGeometry relative="1" as="geometry" />
        </mxCell>
        <mxCell id="yMrenib0WPdnj-31CfID-12" value="" style="shape=parallelogram;perimeter=parallelogramPerimeter;whiteSpace=wrap;html=1;fixedSize=1;" vertex="1" parent="1">
          <mxGeometry x="350" y="540" width="120" height="60" as="geometry" />
        </mxCell>
        <mxCell id="yMrenib0WPdnj-31CfID-13" value="Input price2" style="text;html=1;align=center;verticalAlign=middle;whiteSpace=wrap;rounded=0;" vertex="1" parent="1">
          <mxGeometry x="380" y="550" width="60" height="30" as="geometry" />
        </mxCell>
        <mxCell id="yMrenib0WPdnj-31CfID-18" style="edgeStyle=orthogonalEdgeStyle;rounded=0;orthogonalLoop=1;jettySize=auto;html=1;exitX=0.5;exitY=1;exitDx=0;exitDy=0;entryX=0.558;entryY=0.067;entryDx=0;entryDy=0;entryPerimeter=0;" edge="1" parent="1" source="yMrenib0WPdnj-31CfID-11" target="yMrenib0WPdnj-31CfID-12">
          <mxGeometry relative="1" as="geometry" />
        </mxCell>
        <mxCell id="yMrenib0WPdnj-31CfID-23" style="edgeStyle=orthogonalEdgeStyle;rounded=0;orthogonalLoop=1;jettySize=auto;html=1;exitX=0.5;exitY=1;exitDx=0;exitDy=0;entryX=0.5;entryY=0;entryDx=0;entryDy=0;" edge="1" parent="1" source="yMrenib0WPdnj-31CfID-19" target="yMrenib0WPdnj-31CfID-21">
          <mxGeometry relative="1" as="geometry" />
        </mxCell>
        <mxCell id="yMrenib0WPdnj-31CfID-19" value="sum = price1 + price2&lt;div&gt;&lt;br/&gt;&lt;/div&gt;" style="rounded=0;whiteSpace=wrap;html=1;" vertex="1" parent="1">
          <mxGeometry x="350" y="630" width="120" height="70" as="geometry" />
        </mxCell>
        <mxCell id="yMrenib0WPdnj-31CfID-24" style="edgeStyle=orthogonalEdgeStyle;rounded=0;orthogonalLoop=1;jettySize=auto;html=1;exitX=0.5;exitY=1;exitDx=0;exitDy=0;entryX=0.5;entryY=0;entryDx=0;entryDy=0;" edge="1" parent="1" source="yMrenib0WPdnj-31CfID-21" target="yMrenib0WPdnj-31CfID-22">
          <mxGeometry relative="1" as="geometry" />
        </mxCell>
        <mxCell id="yMrenib0WPdnj-31CfID-21" value="discount = sum * drate" style="rounded=0;whiteSpace=wrap;html=1;" vertex="1" parent="1">
          <mxGeometry x="350" y="720" width="120" height="60" as="geometry" />
        </mxCell>
        <mxCell id="yMrenib0WPdnj-31CfID-26" style="edgeStyle=orthogonalEdgeStyle;rounded=0;orthogonalLoop=1;jettySize=auto;html=1;exitX=0.5;exitY=1;exitDx=0;exitDy=0;entryX=0.5;entryY=0;entryDx=0;entryDy=0;" edge="1" parent="1" source="yMrenib0WPdnj-31CfID-22" target="yMrenib0WPdnj-31CfID-25">
          <mxGeometry relative="1" as="geometry" />
        </mxCell>
        <mxCell id="yMrenib0WPdnj-31CfID-22" value="final_cost = sum - discount" style="rounded=0;whiteSpace=wrap;html=1;" vertex="1" parent="1">
          <mxGeometry x="350" y="810" width="120" height="60" as="geometry" />
        </mxCell>
        <mxCell id="yMrenib0WPdnj-31CfID-28" style="edgeStyle=orthogonalEdgeStyle;rounded=0;orthogonalLoop=1;jettySize=auto;html=1;exitX=0.5;exitY=1;exitDx=0;exitDy=0;entryX=0.5;entryY=0;entryDx=0;entryDy=0;" edge="1" parent="1" source="yMrenib0WPdnj-31CfID-25" target="yMrenib0WPdnj-31CfID-27">
          <mxGeometry relative="1" as="geometry" />
        </mxCell>
        <mxCell id="yMrenib0WPdnj-31CfID-25" value="display final_cost" style="shape=parallelogram;perimeter=parallelogramPerimeter;whiteSpace=wrap;html=1;fixedSize=1;" vertex="1" parent="1">
          <mxGeometry x="340" y="890" width="120" height="60" as="geometry" />
        </mxCell>
        <mxCell id="yMrenib0WPdnj-31CfID-27" value="END" style="ellipse;whiteSpace=wrap;html=1;" vertex="1" parent="1">
          <mxGeometry x="330" y="970" width="120" height="80" as="geometry" />
        </mxCell>
      </root>
    </mxGraphModel>
  </diagram>
</mxfile>
